<svg width="83" height="74" viewBox="0 0 83 74" fill="none" xmlns="http://www.w3.org/2000/svg">
<rect width="65" height="65" rx="32.5" fill="#FD8558" fill-opacity="0.1"/>
<path d="M59 74V68H61V62H63V56L63.001 50.442C69.272 46.359 73 39.507 73 32C73 19.869 63.131 10 51 10C38.869 10 29 19.869 29 32C29 39.459 32.817 46.514 39 50.55V54V56V62H41V68H43V74H59ZM57 72H45V68H57V72ZM40.524 49.148C34.649 45.53 31 38.96 31 32C31 20.972 39.972 12 51 12C62.028 12 71 20.972 71 32C71 38.995 67.439 45.366 61.477 49.041L61 49.334V54H56.161L58.989 35.148L57.01 34.851L56.902 35.573L54.093 37.679L51 34.586L47.906 37.68L45.097 35.574L44.989 34.852L43.01 35.149L45.839 54H41V49.441L40.524 49.148ZM47.861 54L45.52 38.39L48.094 40.321L51 37.414L53.906 40.32L56.48 38.389L54.139 54H47.861ZM41 56H61V60H41V56ZM43 62H59V66H43V62Z" fill="#FD8558"/>
</svg>
