<svg width="83" height="74" viewBox="0 0 83 74" fill="none" xmlns="http://www.w3.org/2000/svg">
<rect width="65" height="65" rx="32.5" fill="#3A0F73" fill-opacity="0.1"/>
<g clip-path="url(#clip0_11411_6)">
<path d="M51 10C33.355 10 19 24.355 19 42C19 59.645 33.355 74 51 74C68.645 74 83 59.645 83 42C83 24.355 68.645 10 51 10ZM80.167 35H65.365C63.799 31.799 61.201 29.201 58 27.635V12.833C68.928 15.456 77.544 24.072 80.167 35ZM81 42C81 43.704 80.85 45.373 80.575 47H66.188C66.708 45.425 67 43.747 67 42C67 40.253 66.708 38.575 66.188 37H80.575C80.85 38.627 81 40.296 81 42ZM51 56C43.28 56 37 49.72 37 42C37 34.28 43.28 28 51 28C58.72 28 65 34.28 65 42C65 49.72 58.72 56 51 56ZM35.812 47H21.425C21.15 45.373 21 43.704 21 42C21 40.296 21.15 38.627 21.425 37H35.812C35.292 38.575 35 40.253 35 42C35 43.747 35.292 45.425 35.812 47ZM56 12.425V26.812C54.425 26.291 52.747 26 51 26C49.253 26 47.575 26.291 46 26.812V12.425C47.627 12.15 49.296 12 51 12C52.704 12 54.373 12.15 56 12.425ZM44 12.833V27.635C40.799 29.201 38.201 31.799 36.635 35H21.833C24.456 24.072 33.072 15.456 44 12.833ZM21.833 49H36.635C38.201 52.201 40.799 54.799 44 56.365V71.167C33.072 68.544 24.456 59.928 21.833 49ZM46 71.575V57.188C47.575 57.709 49.253 58 51 58C52.747 58 54.425 57.709 56 57.188V71.575C54.373 71.85 52.704 72 51 72C49.296 72 47.627 71.85 46 71.575ZM58 71.167V56.365C61.201 54.799 63.799 52.201 65.365 49H80.167C77.544 59.928 68.928 68.544 58 71.167Z" fill="#3A0F73"/>
</g>
<defs>
<clipPath id="clip0_11411_6">
<rect width="64" height="64" fill="white" transform="translate(19 10)"/>
</clipPath>
</defs>
</svg>
